<svg id="visual" viewBox="0 0 960 540" width="960" height="540" xmlns="http://www.w3.org/2000/svg" xmlns:xlink="http://www.w3.org/1999/xlink" version="1.1"><rect x="0" y="0" width="960" height="540" fill="#1a0c36"></rect><path d="M0 438L32 429.2C64 420.3 128 402.7 192 397.8C256 393 320 401 384 399C448 397 512 385 576 386C640 387 704 401 768 401.5C832 402 896 389 928 382.5L960 376L960 541L928 541C896 541 832 541 768 541C704 541 640 541 576 541C512 541 448 541 384 541C320 541 256 541 192 541C128 541 64 541 32 541L0 541Z" fill="#411d87" stroke-linecap="round" stroke-linejoin="miter"></path></svg>